<svg id="Layer_1" data-name="Layer 1" xmlns="http://www.w3.org/2000/svg" width="89.17mm" height="89.17mm" viewBox="0 0 252.76 252.76">
  <g>
    <path class="cls-3" d="M229.32,252.28l-36.69-.13c0-30.05-.16-60.09,0-90.13.07-11.58-4.36-21.09-11.62-29.65-3.62-4.26-7.7-8.07-11.64-12Q128,78.89,86.46,37.49c-1.83-1.82-1.82-2.73,0-4.52C94.85,24.81,103,16.42,111.36,8.23c4.25-4.16,9-7.31,15.41-7.22,5.11.08,9.15,2.37,12.92,5.44a31.15,31.15,0,0,1,2.5,2.38q47.48,47.46,94.94,94.93c6.6,6.6,11.91,14,14.16,23.26a33.82,33.82,0,0,1,1,7.08q0,24.41-.08,48.8c0,14.77.06,29.53.09,44.3a39.62,39.62,0,0,1-1.6,10.64c-2.47,8.17-8.37,12.27-16.4,13.81C232.65,252,231,252.08,229.32,252.28Z"/>
    <path class="cls-3" d="M176.63,252.15l-59.53,0c0-19.06-.44-38.13.11-57.17.4-13.92-5-24.92-14.4-34.39-16-16.14-32.07-32.12-48.12-48.17C47.3,105,39.94,97.57,32.47,90.24c-1.36-1.33-1.27-2,0-3.26Q52.14,67.49,71.62,47.87c1.16-1.16,1.78-1.37,3.07-.08q46.2,46.32,92.48,92.57a40.41,40.41,0,0,1,6.16,8,22.7,22.7,0,0,1,3.39,12.06C176.6,191,176.64,221.56,176.63,252.15Z"/>
    <path class="cls-3" d="M101.11,252.18l-74.49,0c-1.06,0-2.12.05-3.18.08-7.65-.68-14.63-2.67-19-9.74a24,24,0,0,1-3.24-9.74,71,71,0,0,1-.48-9c0-28.45.22-56.9-.12-85.35C.39,122.64,7.94,111,18.77,100.75c.71-.66,1.29-.86,2-.06.41.47.88.88,1.32,1.32q34.41,34.41,68.82,68.82a48.71,48.71,0,0,1,6.28,7.54,23.15,23.15,0,0,1,4.06,13.45C101.06,211.94,101.13,232.06,101.11,252.18Z"/>
  </g>
</svg>
